<svg width="143" height="58" viewBox="0 0 143 58" fill="none" xmlns="http://www.w3.org/2000/svg">
<path d="M19.5616 4.648C21.3056 4.648 22.6736 5.008 23.6656 5.728C24.6736 6.432 25.1776 7.536 25.1776 9.04C25.1776 9.952 24.9696 10.744 24.5536 11.416C24.1376 12.088 23.5536 12.616 22.8016 13C22.0656 13.384 21.1936 13.6 20.1856 13.648L19.8496 12.448C21.0176 12.48 22.0656 12.688 22.9936 13.072C23.9216 13.456 24.6576 13.992 25.2016 14.68C25.7456 15.368 26.0176 16.184 26.0176 17.128C26.0176 17.992 25.8576 18.736 25.5376 19.36C25.2176 19.968 24.7856 20.472 24.2416 20.872C23.6976 21.256 23.0816 21.544 22.3936 21.736C21.7056 21.912 20.9936 22 20.2576 22H15.0976V4.648H19.5616ZM20.0416 12.256C21.0016 12.256 21.6976 11.992 22.1296 11.464C22.5616 10.92 22.7776 10.264 22.7776 9.496C22.7776 8.584 22.4976 7.92 21.9376 7.504C21.3776 7.088 20.6256 6.88 19.6816 6.88H17.4256V12.256H20.0416ZM20.1376 19.84C20.7776 19.84 21.3616 19.744 21.8896 19.552C22.4336 19.36 22.8576 19.064 23.1616 18.664C23.4816 18.264 23.6416 17.76 23.6416 17.152C23.6416 16.48 23.4576 15.952 23.0896 15.568C22.7376 15.184 22.2816 14.912 21.7216 14.752C21.1616 14.576 20.5856 14.488 19.9936 14.488H17.4256V19.84H20.1376ZM28.5175 16.936C28.5175 15.944 28.7495 15.048 29.2135 14.248C29.6935 13.448 30.3495 12.816 31.1815 12.352C32.0135 11.888 32.9575 11.656 34.0135 11.656C35.1015 11.656 36.0535 11.888 36.8695 12.352C37.6855 12.816 38.3175 13.448 38.7655 14.248C39.2135 15.048 39.4375 15.944 39.4375 16.936C39.4375 17.928 39.2135 18.832 38.7655 19.648C38.3175 20.448 37.6775 21.08 36.8455 21.544C36.0295 22.008 35.0775 22.24 33.9895 22.24C32.9335 22.24 31.9895 22.024 31.1575 21.592C30.3415 21.144 29.6935 20.528 29.2135 19.744C28.7495 18.944 28.5175 18.008 28.5175 16.936ZM30.7495 16.96C30.7495 17.6 30.8935 18.184 31.1815 18.712C31.4695 19.224 31.8535 19.632 32.3335 19.936C32.8295 20.24 33.3735 20.392 33.9655 20.392C34.5895 20.392 35.1415 20.24 35.6215 19.936C36.1175 19.632 36.5015 19.224 36.7735 18.712C37.0455 18.184 37.1815 17.6 37.1815 16.96C37.1815 16.32 37.0455 15.744 36.7735 15.232C36.5015 14.704 36.1175 14.288 35.6215 13.984C35.1415 13.664 34.5895 13.504 33.9655 13.504C33.3575 13.504 32.8055 13.664 32.3095 13.984C31.8295 14.304 31.4455 14.728 31.1575 15.256C30.8855 15.768 30.7495 16.336 30.7495 16.96ZM46.4916 22.24C45.5796 22.24 44.7476 22.024 43.9956 21.592C43.2596 21.144 42.6756 20.52 42.2436 19.72C41.8116 18.904 41.5956 17.968 41.5956 16.912C41.5956 15.808 41.8196 14.864 42.2676 14.08C42.7316 13.296 43.3556 12.696 44.1396 12.28C44.9236 11.864 45.8036 11.656 46.7796 11.656C47.5636 11.656 48.3076 11.824 49.0116 12.16C49.7316 12.496 50.2916 12.96 50.6916 13.552L50.5956 14.344V3.424H52.8036V22H50.5716V19.528L50.8116 20.152C50.3476 20.76 49.7476 21.264 49.0116 21.664C48.2756 22.048 47.4356 22.24 46.4916 22.24ZM47.1876 20.344C47.7796 20.344 48.3076 20.24 48.7716 20.032C49.2356 19.808 49.6196 19.504 49.9236 19.12C50.2276 18.736 50.4436 18.28 50.5716 17.752V15.88C50.4436 15.4 50.2116 14.984 49.8756 14.632C49.5556 14.264 49.1636 13.976 48.6996 13.768C48.2516 13.544 47.7476 13.432 47.1876 13.432C46.5796 13.432 46.0196 13.584 45.5076 13.888C45.0116 14.176 44.6116 14.576 44.3076 15.088C44.0036 15.6 43.8516 16.192 43.8516 16.864C43.8516 17.52 44.0036 18.112 44.3076 18.64C44.6116 19.152 45.0196 19.568 45.5316 19.888C46.0436 20.192 46.5956 20.344 47.1876 20.344ZM57.5262 26.776L64.0782 12.064H66.1422L59.7342 26.776H57.5262ZM59.9742 22.072L55.1982 12.064H57.7182L61.7262 20.944L59.9742 22.072ZM71.3296 22.192C70.6256 22.192 69.9376 22.072 69.2656 21.832C68.6096 21.576 68.0656 21.2 67.6336 20.704L68.5696 19.408C68.9856 19.808 69.4096 20.112 69.8416 20.32C70.2896 20.512 70.7296 20.608 71.1616 20.608C71.4816 20.608 71.7776 20.568 72.0496 20.488C72.3216 20.408 72.5376 20.28 72.6976 20.104C72.8736 19.912 72.9616 19.656 72.9616 19.336C72.9616 18.984 72.8416 18.704 72.6016 18.496C72.3776 18.288 72.0816 18.12 71.7136 17.992C71.3616 17.864 70.9856 17.744 70.5856 17.632C69.7696 17.36 69.1456 16.984 68.7136 16.504C68.2816 16.024 68.0656 15.44 68.0656 14.752C68.0656 14.224 68.1936 13.736 68.4496 13.288C68.7216 12.824 69.1136 12.448 69.6256 12.16C70.1536 11.872 70.8016 11.728 71.5696 11.728C72.2576 11.728 72.8736 11.816 73.4176 11.992C73.9616 12.152 74.4736 12.424 74.9536 12.808L74.0656 14.2C73.7776 13.896 73.4336 13.672 73.0336 13.528C72.6336 13.384 72.2736 13.304 71.9536 13.288C71.6816 13.272 71.4176 13.312 71.1616 13.408C70.9216 13.504 70.7216 13.64 70.5616 13.816C70.4016 13.992 70.3216 14.2 70.3216 14.44C70.3216 14.776 70.4336 15.048 70.6576 15.256C70.8816 15.464 71.1696 15.632 71.5216 15.76C71.8896 15.872 72.2496 15.992 72.6016 16.12C73.0976 16.264 73.5376 16.456 73.9216 16.696C74.3056 16.936 74.6096 17.232 74.8336 17.584C75.0736 17.936 75.1936 18.376 75.1936 18.904C75.1936 19.496 75.0496 20.048 74.7616 20.56C74.4896 21.056 74.0656 21.456 73.4896 21.76C72.9296 22.048 72.2096 22.192 71.3296 22.192ZM78.319 22V3.424H80.503V14.368L80.455 13.96C80.791 13.304 81.303 12.76 81.991 12.328C82.695 11.896 83.519 11.68 84.463 11.68C85.407 11.68 86.175 11.96 86.767 12.52C87.375 13.064 87.687 13.776 87.703 14.656V22H85.447V15.448C85.431 14.904 85.271 14.464 84.967 14.128C84.679 13.776 84.223 13.6 83.599 13.6C83.023 13.6 82.503 13.768 82.039 14.104C81.575 14.424 81.207 14.864 80.935 15.424C80.679 15.984 80.551 16.624 80.551 17.344V22H78.319ZM95.7126 22.24C94.7846 22.24 93.9366 22.04 93.1686 21.64C92.4166 21.24 91.8166 20.656 91.3686 19.888C90.9366 19.104 90.7206 18.152 90.7206 17.032C90.7206 15.928 90.9526 14.976 91.4166 14.176C91.8806 13.36 92.4966 12.736 93.2646 12.304C94.0486 11.872 94.9046 11.656 95.8326 11.656C96.7606 11.656 97.5446 11.872 98.1846 12.304C98.8246 12.72 99.3126 13.216 99.6486 13.792L99.5046 14.176L99.7206 12.064H101.785V22H99.5526V19.408L99.7926 19.984C99.7286 20.144 99.5846 20.352 99.3606 20.608C99.1526 20.848 98.8646 21.096 98.4966 21.352C98.1446 21.608 97.7366 21.824 97.2726 22C96.8086 22.16 96.2886 22.24 95.7126 22.24ZM96.3126 20.392C96.8726 20.392 97.3766 20.288 97.8246 20.08C98.2726 19.872 98.6406 19.584 98.9286 19.216C99.2326 18.832 99.4406 18.376 99.5526 17.848V15.904C99.4246 15.424 99.2006 15.008 98.8806 14.656C98.5606 14.288 98.1766 14.008 97.7286 13.816C97.2806 13.608 96.7846 13.504 96.2406 13.504C95.6486 13.504 95.1046 13.648 94.6086 13.936C94.1126 14.224 93.7126 14.624 93.4086 15.136C93.1206 15.648 92.9766 16.248 92.9766 16.936C92.9766 17.576 93.1286 18.16 93.4326 18.688C93.7366 19.216 94.1446 19.632 94.6566 19.936C95.1686 20.24 95.7206 20.392 96.3126 20.392ZM111.503 22.24C110.751 22.24 110.023 22.064 109.319 21.712C108.631 21.36 108.095 20.888 107.711 20.296L107.855 19.6V26.776H105.647V11.92H107.567L107.879 14.464L107.639 13.768C108.119 13.16 108.727 12.656 109.463 12.256C110.199 11.856 111.023 11.656 111.935 11.656C112.863 11.656 113.695 11.88 114.431 12.328C115.183 12.776 115.775 13.4 116.207 14.2C116.639 15 116.855 15.936 116.855 17.008C116.855 18.08 116.623 19.008 116.159 19.792C115.695 20.576 115.055 21.184 114.239 21.616C113.439 22.032 112.527 22.24 111.503 22.24ZM111.071 20.464C111.711 20.464 112.295 20.32 112.823 20.032C113.367 19.728 113.799 19.32 114.119 18.808C114.439 18.28 114.599 17.688 114.599 17.032C114.599 16.36 114.447 15.768 114.143 15.256C113.839 14.728 113.431 14.312 112.919 14.008C112.423 13.704 111.863 13.552 111.239 13.552C110.663 13.552 110.143 13.664 109.679 13.888C109.215 14.112 108.831 14.424 108.527 14.824C108.223 15.208 108.007 15.656 107.879 16.168V17.824C107.959 18.336 108.151 18.792 108.455 19.192C108.759 19.592 109.135 19.904 109.583 20.128C110.047 20.352 110.543 20.464 111.071 20.464ZM124.482 22.24C123.346 22.24 122.37 22.016 121.554 21.568C120.738 21.104 120.106 20.48 119.658 19.696C119.226 18.896 119.01 17.984 119.01 16.96C119.01 15.984 119.258 15.096 119.754 14.296C120.25 13.496 120.914 12.856 121.746 12.376C122.578 11.896 123.506 11.656 124.53 11.656C125.842 11.656 126.93 12.04 127.794 12.808C128.658 13.576 129.242 14.632 129.546 15.976L121.362 18.856L120.834 17.536L127.554 15.088L127.074 15.4C126.882 14.872 126.562 14.416 126.114 14.032C125.666 13.632 125.082 13.432 124.362 13.432C123.754 13.432 123.21 13.584 122.73 13.888C122.25 14.176 121.874 14.576 121.602 15.088C121.33 15.6 121.194 16.184 121.194 16.84C121.194 17.528 121.338 18.136 121.626 18.664C121.914 19.176 122.306 19.584 122.802 19.888C123.314 20.176 123.89 20.32 124.53 20.32C124.962 20.32 125.378 20.24 125.778 20.08C126.194 19.92 126.578 19.712 126.93 19.456L127.962 21.112C127.466 21.448 126.906 21.72 126.282 21.928C125.674 22.136 125.074 22.24 124.482 22.24Z" fill="url(#paint0_linear_3_10)"/>
<path d="M2.3545 47.928C2.3545 48.32 2.4465 48.672 2.6305 48.984C2.8225 49.288 3.0745 49.528 3.3865 49.704C3.6985 49.88 4.0505 49.968 4.4425 49.968C4.8505 49.968 5.2145 49.88 5.5345 49.704C5.8545 49.528 6.1065 49.288 6.2905 48.984C6.4745 48.672 6.5665 48.32 6.5665 47.928V42.324H7.7065V47.964C7.7065 48.596 7.5585 49.148 7.2625 49.62C6.9745 50.092 6.5825 50.456 6.0865 50.712C5.5985 50.968 5.0505 51.096 4.4425 51.096C3.8345 51.096 3.2865 50.968 2.7985 50.712C2.3105 50.456 1.9225 50.092 1.6345 49.62C1.3465 49.148 1.2025 48.596 1.2025 47.964V42.324H2.3545V47.928ZM10.8078 46.032L10.9038 47.244L10.8558 47.052C11.0158 46.684 11.2758 46.392 11.6358 46.176C11.9958 45.952 12.4118 45.84 12.8838 45.84C13.3558 45.84 13.7398 45.98 14.0358 46.26C14.3398 46.532 14.4958 46.888 14.5038 47.328V51H13.3758V47.724C13.3678 47.452 13.2878 47.232 13.1358 47.064C12.9918 46.888 12.7638 46.8 12.4518 46.8C12.1638 46.8 11.9038 46.88 11.6718 47.04C11.4398 47.2 11.2558 47.42 11.1198 47.7C10.9918 47.98 10.9278 48.304 10.9278 48.672V51H9.81184V46.032H10.8078ZM16.4447 41.712H17.5607V51H16.4447V41.712ZM21.7955 51.12C21.2275 51.12 20.7395 51.008 20.3315 50.784C19.9235 50.552 19.6075 50.24 19.3835 49.848C19.1675 49.448 19.0595 48.992 19.0595 48.48C19.0595 47.992 19.1835 47.548 19.4315 47.148C19.6795 46.748 20.0115 46.428 20.4275 46.188C20.8435 45.948 21.3075 45.828 21.8195 45.828C22.4755 45.828 23.0195 46.02 23.4515 46.404C23.8835 46.788 24.1755 47.316 24.3275 47.988L20.2355 49.428L19.9715 48.768L23.3315 47.544L23.0915 47.7C22.9955 47.436 22.8355 47.208 22.6115 47.016C22.3875 46.816 22.0955 46.716 21.7355 46.716C21.4315 46.716 21.1595 46.792 20.9195 46.944C20.6795 47.088 20.4915 47.288 20.3555 47.544C20.2195 47.8 20.1515 48.092 20.1515 48.42C20.1515 48.764 20.2235 49.068 20.3675 49.332C20.5115 49.588 20.7075 49.792 20.9555 49.944C21.2115 50.088 21.4995 50.16 21.8195 50.16C22.0355 50.16 22.2435 50.12 22.4435 50.04C22.6515 49.96 22.8435 49.856 23.0195 49.728L23.5355 50.556C23.2875 50.724 23.0075 50.86 22.6955 50.964C22.3915 51.068 22.0915 51.12 21.7955 51.12ZM27.7899 51.12C27.3259 51.12 26.9019 51.02 26.5179 50.82C26.1419 50.62 25.8419 50.328 25.6179 49.944C25.4019 49.552 25.2939 49.076 25.2939 48.516C25.2939 47.964 25.4099 47.488 25.6419 47.088C25.8739 46.68 26.1819 46.368 26.5659 46.152C26.9579 45.936 27.3859 45.828 27.8499 45.828C28.3139 45.828 28.7059 45.936 29.0259 46.152C29.3459 46.36 29.5899 46.608 29.7579 46.896L29.6859 47.088L29.7939 46.032H30.8259V51H29.7099V49.704L29.8299 49.992C29.7979 50.072 29.7259 50.176 29.6139 50.304C29.5099 50.424 29.3659 50.548 29.1819 50.676C29.0059 50.804 28.8019 50.912 28.5699 51C28.3379 51.08 28.0779 51.12 27.7899 51.12ZM28.0899 50.196C28.3699 50.196 28.6219 50.144 28.8459 50.04C29.0699 49.936 29.2539 49.792 29.3979 49.608C29.5499 49.416 29.6539 49.188 29.7099 48.924V47.952C29.6459 47.712 29.5339 47.504 29.3739 47.328C29.2139 47.144 29.0219 47.004 28.7979 46.908C28.5739 46.804 28.3259 46.752 28.0539 46.752C27.7579 46.752 27.4859 46.824 27.2379 46.968C26.9899 47.112 26.7899 47.312 26.6379 47.568C26.4939 47.824 26.4219 48.124 26.4219 48.468C26.4219 48.788 26.4979 49.08 26.6499 49.344C26.8019 49.608 27.0059 49.816 27.2619 49.968C27.5179 50.12 27.7939 50.196 28.0899 50.196ZM34.1492 51.096C33.7972 51.096 33.4532 51.036 33.1172 50.916C32.7892 50.788 32.5172 50.6 32.3012 50.352L32.7692 49.704C32.9772 49.904 33.1892 50.056 33.4052 50.16C33.6292 50.256 33.8492 50.304 34.0652 50.304C34.2252 50.304 34.3732 50.284 34.5092 50.244C34.6452 50.204 34.7532 50.14 34.8332 50.052C34.9212 49.956 34.9652 49.828 34.9652 49.668C34.9652 49.492 34.9052 49.352 34.7852 49.248C34.6732 49.144 34.5252 49.06 34.3412 48.996C34.1652 48.932 33.9772 48.872 33.7772 48.816C33.3692 48.68 33.0572 48.492 32.8412 48.252C32.6252 48.012 32.5172 47.72 32.5172 47.376C32.5172 47.112 32.5812 46.868 32.7092 46.644C32.8452 46.412 33.0412 46.224 33.2972 46.08C33.5612 45.936 33.8852 45.864 34.2692 45.864C34.6132 45.864 34.9212 45.908 35.1932 45.996C35.4652 46.076 35.7212 46.212 35.9612 46.404L35.5172 47.1C35.3732 46.948 35.2012 46.836 35.0012 46.764C34.8012 46.692 34.6212 46.652 34.4612 46.644C34.3252 46.636 34.1932 46.656 34.0652 46.704C33.9452 46.752 33.8452 46.82 33.7652 46.908C33.6852 46.996 33.6452 47.1 33.6452 47.22C33.6452 47.388 33.7012 47.524 33.8132 47.628C33.9252 47.732 34.0692 47.816 34.2452 47.88C34.4292 47.936 34.6092 47.996 34.7852 48.06C35.0332 48.132 35.2532 48.228 35.4452 48.348C35.6372 48.468 35.7892 48.616 35.9012 48.792C36.0212 48.968 36.0812 49.188 36.0812 49.452C36.0812 49.748 36.0092 50.024 35.8652 50.28C35.7292 50.528 35.5172 50.728 35.2292 50.88C34.9492 51.024 34.5892 51.096 34.1492 51.096ZM37.6439 51V41.712H38.7359V47.184L38.7119 46.98C38.8799 46.652 39.1359 46.38 39.4799 46.164C39.8319 45.948 40.2439 45.84 40.7159 45.84C41.1879 45.84 41.5719 45.98 41.8679 46.26C42.1719 46.532 42.3279 46.888 42.3359 47.328V51H41.2079V47.724C41.1999 47.452 41.1199 47.232 40.9679 47.064C40.8239 46.888 40.5959 46.8 40.2839 46.8C39.9959 46.8 39.7359 46.884 39.5039 47.052C39.2719 47.212 39.0879 47.432 38.9519 47.712C38.8239 47.992 38.7599 48.312 38.7599 48.672V51H37.6439ZM48.4936 53.388L51.7696 46.032H52.8016L49.5976 53.388H48.4936ZM49.7176 51.036L47.3296 46.032H48.5896L50.5936 50.472L49.7176 51.036ZM53.4189 48.468C53.4189 47.972 53.5349 47.524 53.7669 47.124C54.0069 46.724 54.3349 46.408 54.7509 46.176C55.1669 45.944 55.6389 45.828 56.1669 45.828C56.7109 45.828 57.1869 45.944 57.5949 46.176C58.0029 46.408 58.3189 46.724 58.5429 47.124C58.7669 47.524 58.8789 47.972 58.8789 48.468C58.8789 48.964 58.7669 49.416 58.5429 49.824C58.3189 50.224 57.9989 50.54 57.5829 50.772C57.1749 51.004 56.6989 51.12 56.1549 51.12C55.6269 51.12 55.1549 51.012 54.7389 50.796C54.3309 50.572 54.0069 50.264 53.7669 49.872C53.5349 49.472 53.4189 49.004 53.4189 48.468ZM54.5349 48.48C54.5349 48.8 54.6069 49.092 54.7509 49.356C54.8949 49.612 55.0869 49.816 55.3269 49.968C55.5749 50.12 55.8469 50.196 56.1429 50.196C56.4549 50.196 56.7309 50.12 56.9709 49.968C57.2189 49.816 57.4109 49.612 57.5469 49.356C57.6829 49.092 57.7509 48.8 57.7509 48.48C57.7509 48.16 57.6829 47.872 57.5469 47.616C57.4109 47.352 57.2189 47.144 56.9709 46.992C56.7309 46.832 56.4549 46.752 56.1429 46.752C55.8389 46.752 55.5629 46.832 55.3149 46.992C55.0749 47.152 54.8829 47.364 54.7389 47.628C54.6029 47.884 54.5349 48.168 54.5349 48.48ZM61.962 51.192C61.514 51.192 61.142 51.056 60.846 50.784C60.558 50.504 60.406 50.144 60.39 49.704V46.032H61.506V49.308C61.522 49.58 61.598 49.8 61.734 49.968C61.878 50.136 62.102 50.224 62.406 50.232C62.686 50.232 62.934 50.152 63.15 49.992C63.374 49.824 63.554 49.6 63.69 49.32C63.826 49.032 63.894 48.708 63.894 48.348V46.032H65.01V51H63.99L63.894 49.776L63.954 49.992C63.858 50.224 63.71 50.432 63.51 50.616C63.318 50.792 63.09 50.932 62.826 51.036C62.562 51.14 62.274 51.192 61.962 51.192ZM67.9368 46.032L68.0448 47.472L67.9848 47.28C68.1128 46.976 68.2968 46.72 68.5368 46.512C68.7848 46.296 69.0408 46.132 69.3048 46.02C69.5768 45.9 69.8128 45.84 70.0128 45.84L69.9528 46.944C69.5768 46.92 69.2448 46.992 68.9568 47.16C68.6768 47.328 68.4528 47.552 68.2848 47.832C68.1248 48.112 68.0448 48.412 68.0448 48.732V51H66.9408V46.032H67.9368ZM75.2493 46.032H76.3653V51H75.2493V46.032ZM75.1653 44.232C75.1653 44.056 75.2333 43.908 75.3693 43.788C75.5133 43.668 75.6693 43.608 75.8373 43.608C76.0053 43.608 76.1533 43.668 76.2813 43.788C76.4173 43.908 76.4853 44.056 76.4853 44.232C76.4853 44.416 76.4173 44.568 76.2813 44.688C76.1533 44.8 76.0053 44.856 75.8373 44.856C75.6693 44.856 75.5133 44.796 75.3693 44.676C75.2333 44.556 75.1653 44.408 75.1653 44.232ZM79.2922 46.032L79.3882 47.244L79.3402 47.052C79.5002 46.684 79.7602 46.392 80.1202 46.176C80.4802 45.952 80.8962 45.84 81.3682 45.84C81.8402 45.84 82.2242 45.98 82.5202 46.26C82.8242 46.532 82.9802 46.888 82.9882 47.328V51H81.8602V47.724C81.8522 47.452 81.7722 47.232 81.6202 47.064C81.4762 46.888 81.2482 46.8 80.9362 46.8C80.6482 46.8 80.3882 46.88 80.1562 47.04C79.9242 47.2 79.7402 47.42 79.6042 47.7C79.4762 47.98 79.4122 48.304 79.4122 48.672V51H78.2962V46.032H79.2922ZM85.925 46.032L86.021 47.244L85.973 47.052C86.133 46.684 86.393 46.392 86.753 46.176C87.113 45.952 87.529 45.84 88.001 45.84C88.473 45.84 88.857 45.98 89.153 46.26C89.457 46.532 89.613 46.888 89.621 47.328V51H88.493V47.724C88.485 47.452 88.405 47.232 88.253 47.064C88.109 46.888 87.881 46.8 87.569 46.8C87.281 46.8 87.021 46.88 86.789 47.04C86.557 47.2 86.373 47.42 86.237 47.7C86.109 47.98 86.045 48.304 86.045 48.672V51H84.929V46.032H85.925ZM93.8658 51.12C93.2978 51.12 92.8098 51.008 92.4018 50.784C91.9938 50.552 91.6778 50.24 91.4538 49.848C91.2378 49.448 91.1298 48.992 91.1298 48.48C91.1298 47.992 91.2538 47.548 91.5018 47.148C91.7498 46.748 92.0818 46.428 92.4978 46.188C92.9138 45.948 93.3778 45.828 93.8898 45.828C94.5458 45.828 95.0898 46.02 95.5218 46.404C95.9538 46.788 96.2458 47.316 96.3978 47.988L92.3058 49.428L92.0418 48.768L95.4018 47.544L95.1618 47.7C95.0658 47.436 94.9058 47.208 94.6818 47.016C94.4578 46.816 94.1658 46.716 93.8058 46.716C93.5018 46.716 93.2298 46.792 92.9898 46.944C92.7498 47.088 92.5618 47.288 92.4258 47.544C92.2898 47.8 92.2218 48.092 92.2218 48.42C92.2218 48.764 92.2938 49.068 92.4378 49.332C92.5818 49.588 92.7778 49.792 93.0258 49.944C93.2818 50.088 93.5698 50.16 93.8898 50.16C94.1058 50.16 94.3138 50.12 94.5138 50.04C94.7218 49.96 94.9138 49.856 95.0898 49.728L95.6058 50.556C95.3578 50.724 95.0778 50.86 94.7658 50.964C94.4618 51.068 94.1618 51.12 93.8658 51.12ZM98.7922 46.032L98.9002 47.472L98.8402 47.28C98.9682 46.976 99.1522 46.72 99.3922 46.512C99.6402 46.296 99.8962 46.132 100.16 46.02C100.432 45.9 100.668 45.84 100.868 45.84L100.808 46.944C100.432 46.92 100.1 46.992 99.8122 47.16C99.5322 47.328 99.3082 47.552 99.1402 47.832C98.9802 48.112 98.9002 48.412 98.9002 48.732V51H97.7962V46.032H98.7922ZM108.169 51.12C107.705 51.12 107.281 51.02 106.897 50.82C106.521 50.62 106.221 50.328 105.997 49.944C105.781 49.552 105.673 49.076 105.673 48.516C105.673 47.964 105.789 47.488 106.021 47.088C106.253 46.68 106.561 46.368 106.945 46.152C107.337 45.936 107.765 45.828 108.229 45.828C108.693 45.828 109.085 45.936 109.405 46.152C109.725 46.36 109.969 46.608 110.137 46.896L110.065 47.088L110.173 46.032H111.205V51H110.089V49.704L110.209 49.992C110.177 50.072 110.105 50.176 109.993 50.304C109.889 50.424 109.745 50.548 109.561 50.676C109.385 50.804 109.181 50.912 108.949 51C108.717 51.08 108.457 51.12 108.169 51.12ZM108.469 50.196C108.749 50.196 109.001 50.144 109.225 50.04C109.449 49.936 109.633 49.792 109.777 49.608C109.929 49.416 110.033 49.188 110.089 48.924V47.952C110.025 47.712 109.913 47.504 109.753 47.328C109.593 47.144 109.401 47.004 109.177 46.908C108.953 46.804 108.705 46.752 108.433 46.752C108.137 46.752 107.865 46.824 107.617 46.968C107.369 47.112 107.169 47.312 107.017 47.568C106.873 47.824 106.801 48.124 106.801 48.468C106.801 48.788 106.877 49.08 107.029 49.344C107.181 49.608 107.385 49.816 107.641 49.968C107.897 50.12 108.173 50.196 108.469 50.196ZM113.616 43.848H114.732V46.056H116.1V46.932H114.732V51H113.616V46.932H112.704V46.056H113.616V43.848ZM117.449 51V41.712H118.541V47.184L118.517 46.98C118.685 46.652 118.941 46.38 119.285 46.164C119.637 45.948 120.049 45.84 120.521 45.84C120.993 45.84 121.377 45.98 121.673 46.26C121.977 46.532 122.133 46.888 122.141 47.328V51H121.013V47.724C121.005 47.452 120.925 47.232 120.773 47.064C120.629 46.888 120.401 46.8 120.089 46.8C119.801 46.8 119.541 46.884 119.309 47.052C119.077 47.212 118.893 47.432 118.757 47.712C118.629 47.992 118.565 48.312 118.565 48.672V51H117.449ZM124.081 41.712H125.197V51H124.081V41.712ZM129.432 51.12C128.864 51.12 128.376 51.008 127.968 50.784C127.56 50.552 127.244 50.24 127.02 49.848C126.804 49.448 126.696 48.992 126.696 48.48C126.696 47.992 126.82 47.548 127.068 47.148C127.316 46.748 127.648 46.428 128.064 46.188C128.48 45.948 128.944 45.828 129.456 45.828C130.112 45.828 130.656 46.02 131.088 46.404C131.52 46.788 131.812 47.316 131.964 47.988L127.872 49.428L127.608 48.768L130.968 47.544L130.728 47.7C130.632 47.436 130.472 47.208 130.248 47.016C130.024 46.816 129.732 46.716 129.372 46.716C129.068 46.716 128.796 46.792 128.556 46.944C128.316 47.088 128.128 47.288 127.992 47.544C127.856 47.8 127.788 48.092 127.788 48.42C127.788 48.764 127.86 49.068 128.004 49.332C128.148 49.588 128.344 49.792 128.592 49.944C128.848 50.088 129.136 50.16 129.456 50.16C129.672 50.16 129.88 50.12 130.08 50.04C130.288 49.96 130.48 49.856 130.656 49.728L131.172 50.556C130.924 50.724 130.644 50.86 130.332 50.964C130.028 51.068 129.728 51.12 129.432 51.12ZM133.843 43.848H134.959V46.056H136.327V46.932H134.959V51H133.843V46.932H132.931V46.056H133.843V43.848ZM139.979 51.12C139.411 51.12 138.923 51.008 138.515 50.784C138.107 50.552 137.791 50.24 137.567 49.848C137.351 49.448 137.243 48.992 137.243 48.48C137.243 47.992 137.367 47.548 137.615 47.148C137.863 46.748 138.195 46.428 138.611 46.188C139.027 45.948 139.491 45.828 140.003 45.828C140.659 45.828 141.203 46.02 141.635 46.404C142.067 46.788 142.359 47.316 142.511 47.988L138.419 49.428L138.155 48.768L141.515 47.544L141.275 47.7C141.179 47.436 141.019 47.208 140.795 47.016C140.571 46.816 140.279 46.716 139.919 46.716C139.615 46.716 139.343 46.792 139.103 46.944C138.863 47.088 138.675 47.288 138.539 47.544C138.403 47.8 138.335 48.092 138.335 48.42C138.335 48.764 138.407 49.068 138.551 49.332C138.695 49.588 138.891 49.792 139.139 49.944C139.395 50.088 139.683 50.16 140.003 50.16C140.219 50.16 140.427 50.12 140.627 50.04C140.835 49.96 141.027 49.856 141.203 49.728L141.719 50.556C141.471 50.724 141.191 50.86 140.879 50.964C140.575 51.068 140.275 51.12 139.979 51.12Z" fill="url(#paint1_linear_3_10)"/>
<defs>
<linearGradient id="paint0_linear_3_10" x1="-3.99537e-07" y1="16" x2="143" y2="16" gradientUnits="userSpaceOnUse">
<stop stop-color="#F66844"/>
<stop offset="1" stop-color="#FF921B" stop-opacity="0.5"/>
</linearGradient>
<linearGradient id="paint1_linear_3_10" x1="0" y1="42" x2="143" y2="51" gradientUnits="userSpaceOnUse">
<stop stop-color="#F66844"/>
<stop offset="1" stop-color="#FF921B" stop-opacity="0.5"/>
</linearGradient>
</defs>
</svg>
